# xmcd
#
# Track frame offsets: 
#        150
#        39748
#        77268
#        123928
#        154994
#        166553
#        198709
#
# Disc length: 3155 seconds
#
# Revision: 0
# Processed by: cddbd v1.5.2PL0 Copyright (c) Steve Scherf et al.
# Submitted via: ExactAudioCopy v1.0b3
#
DISCID=4d0c5107
DTITLE=Denny Newmann - Liva La Regulars 
DYEAR=2011
DGENRE=Blues
TTITLE0=This World Keeps Turning
TTITLE1=Burying Ground
TTITLE2=I'll Get Over You
TTITLE3=Just Like I'm Used To
TTITLE4=Livin' For The Past
TTITLE5=The Case Is Closed
TTITLE6=Frenchman
EXTD=
EXTT0=
EXTT1=
EXTT2=
EXTT3=
EXTT4=
EXTT5=
EXTT6=
PLAYORDER=
